<svg width="166" height="163" viewBox="0 0 166 163" fill="none" xmlns="http://www.w3.org/2000/svg">
<path d="M33.1002 0.457789C63.6834 0.375484 94.2666 0.268977 124.85 0.226085C133.654 0.21374 142.458 0.384776 151.788 0.803081C152.315 1.13439 152.618 1.19825 152.618 1.19825L152.889 1.0487C161.418 4.18661 165.161 9.20547 165.196 18.1617C165.264 35.7994 165.178 53.4377 164.705 71.5738C161.339 73.4937 160.499 71.7243 160.044 69.3418C158.968 63.6987 155.874 60.006 150.009 58.528C149.99 53.0433 149.977 48.0249 149.976 42.5376C149.985 34.7098 149.981 27.3509 149.981 19.6737C149.536 18.5209 149.086 17.6865 148.637 16.8522C117.73 16.8385 86.8241 16.8249 55.3743 16.5664C54.5538 16.4274 54.2767 16.5333 53.9997 16.6391C53.2586 16.6897 52.5175 16.7403 51.3735 16.4445C50.2637 16.2617 49.5569 16.4254 48.8501 16.589C48.8501 16.589 48.8798 16.8686 48.3836 16.8945C46.5168 17.4839 45.1794 18.3713 43.7657 18.5165C42.438 18.653 40.0767 18.3379 39.8335 17.6411C39.066 15.442 39.0791 12.9706 38.6552 9.4985C37.5971 8.77781 35.4451 7.31205 33.2646 5.46299C33.1908 3.53906 33.1455 1.99842 33.1002 0.457789Z" fill="#FCFEFE"/>
<path d="M113.057 51.7118C112.197 51.7514 111.338 51.7909 110.039 51.8826C109.599 51.9348 109.613 51.8653 109.613 51.8653C109.333 51.8517 109.053 51.8381 108.279 51.5412C107.552 51.0614 107.295 50.9076 106.993 50.4167C105.733 49.4887 104.282 48.2148 103.284 48.5041C93.1273 51.4488 84.939 42.0445 82.004 34.1893C98.3546 34.1387 114.705 34.0881 131.691 34.311C132.645 34.7478 132.963 34.911 133.281 35.0743C133.331 44.9473 133.38 54.8204 133.18 65.6C133.031 68.1586 133.131 69.8106 133.231 71.4626C133.295 74.3608 133.359 77.259 132.908 80.543C131.606 80.0033 130.235 79.1397 130.129 78.1422C129.576 72.9085 126.235 72.7565 122.261 73.3902C120.647 73.6476 119.012 73.772 117.338 73.4966C117.167 68.6421 117.045 64.2479 116.923 59.8536C116.873 58.5364 116.823 57.2192 116.971 55.1288C117.429 50.9381 116.037 50.0896 113.057 51.7118Z" fill="#F9FBFD"/>
<path d="M100.128 95.8873C99.6697 95.8013 99.211 95.7153 98.2139 95.3221C97.365 95.1401 97.0546 95.2652 96.7442 95.3903C86.6483 95.3903 76.5525 95.3903 65.6615 95.3903C65.6615 86.6482 65.6615 78.081 65.425 68.871C65.1846 67.5927 65.1808 66.9572 65.177 66.3216C76.4353 66.282 87.6935 66.2424 99.4051 66.462C99.9555 67.0572 100.177 67.1998 100.523 67.1491C100.558 76.4013 100.592 85.6535 100.461 95.3081C100.294 95.7105 100.128 95.8873 100.128 95.8873Z" fill="#EEF3F5"/>
<path d="M32.9952 117.993C32.8874 115.544 32.7796 113.095 33.1969 110.318C36.9043 110.982 40.0866 111.975 43.2688 112.967C43.5774 112.363 43.886 111.76 44.1946 111.157C40.4341 109.104 36.6737 107.051 32.9132 104.998C32.9132 94.1111 32.9132 83.2236 32.9132 72.2928C37.4628 72.2928 43.4041 72.2928 49.8602 72.2928C49.8602 87.9538 49.8584 103.378 49.8616 118.802C49.8623 121.965 49.9451 125.13 49.7978 128.286C49.7824 128.616 48.4566 128.884 47.3707 128.622C46.9763 121.296 46.3315 120.379 39.7202 118.813C37.5364 118.295 35.2401 118.253 32.9952 117.993Z" fill="#E0E6E9"/>
<path d="M33.2932 5.84631C35.4451 7.31209 37.5971 8.77785 38.6552 9.49854C39.0792 12.9706 39.066 15.4421 39.8335 17.6411C40.0767 18.338 42.438 18.653 43.7657 18.5165C45.1794 18.3713 46.5168 17.4839 48.2433 16.8856C48.9984 22.2558 49.3977 27.661 49.9387 33.8703C51.519 35.6949 53.19 36.5063 54.3411 37.7855C56.0189 39.6499 57.7504 41.6785 58.6676 43.9558C59.6144 46.3067 59.6142 49.039 60.0283 51.6044C52.3359 51.6844 44.6435 51.7644 36.4235 51.4565C34.9683 49.64 33.7855 48.3088 33.1928 46.7527C32.7054 45.4732 32.9186 43.9269 32.8212 42.4989C32.7346 33.471 32.648 24.4431 32.7726 14.5076C33.087 11.0155 33.1901 8.43089 33.2932 5.84631Z" fill="#E0E6E9"/>
<path d="M165.035 134.003C165.049 138.375 165.062 142.747 164.768 147.697C164.26 148.526 164.118 148.805 164.034 149.114C163.845 150.605 163.655 152.096 163.15 153.388C158.452 152.124 155.111 149.869 153.463 145.42C153.392 145.227 151.066 145.868 149.574 146.111C149.357 146.1 148.941 145.975 148.941 145.975C148.907 127.58 148.873 109.186 149.313 90.5711C150.406 90.5579 151.058 91.0102 151.641 90.9335C156.604 90.2801 159.801 91.9459 161.189 97.0987C161.519 98.3234 163.705 99.0481 165.037 100.003C165.117 101.076 165.198 102.149 164.795 103.662C162.1 106.95 162.72 109.547 165.007 111.997C165.084 112.447 165.162 112.897 164.82 113.703C164.077 114.475 163.754 114.891 163.43 115.307C163.959 115.538 164.488 115.768 165.017 115.999C165.096 117.718 165.176 119.438 164.778 121.563C162.636 119.722 159.489 117.403 159.596 115.244C159.876 109.573 155.508 106.883 153.285 102.878C152.859 102.11 151.575 101.819 149.999 100.912C149.999 104.194 150.018 106.653 149.995 109.111C149.943 114.489 149.271 119.809 154.675 123.75C157.187 125.581 158.338 129.182 160.496 131.638C161.546 132.833 163.494 133.239 165.035 134.003Z" fill="#E0E6E9"/>
<path d="M60.4875 51.6932C59.6142 49.039 59.6144 46.3068 58.6676 43.9559C57.7504 41.6785 56.0189 39.6499 54.3411 37.7856C53.19 36.5064 51.519 35.695 50.0438 34.3249C60.3642 33.993 70.7213 34.0106 81.5412 34.1088C84.939 42.0445 93.1273 51.4489 103.284 48.5042C104.282 48.2149 105.733 49.4888 106.715 50.4722C105.99 51.167 105.524 51.4268 105.057 51.6866C104.524 51.7495 103.99 51.8125 103.042 51.905C102.627 51.9346 102.645 51.8656 102.645 51.8656C88.7455 51.8378 74.8461 51.8098 60.4875 51.6932Z" fill="#F5F9FC"/>
<path d="M51.9962 162.065C39.9225 162.086 27.8377 162.432 15.7786 162.021C6.678 161.711 0.771234 155.227 0.153955 145.824C-0.127508 141.537 0.0662776 137.218 0.464182 132.499C5.54237 135.065 10.2009 138.046 14.8897 141.456C15.6716 144.077 13.0566 147.94 18.03 148.409C20.198 150.836 22.0319 154.178 24.5009 154.743C30.7377 156.169 37.3391 155.948 43.6339 157.196C46.6566 157.795 51.6263 156.41 51.9962 162.065Z" fill="#BDCAD4"/>
<path d="M128 162.07C116.972 162.134 105.944 162.198 94.4496 161.743C92.9688 160.158 92.0413 158.273 90.9254 158.154C82.3752 157.242 73.7868 156.145 65.2134 156.171C58.5891 156.191 52.8751 153.98 47.1278 151.458C45.834 150.89 45.0254 149.217 44.4621 148.031C57.0632 148.007 69.1959 147.971 81.3279 148.046C82.8931 148.056 84.4547 148.642 86.0242 149.362C86.405 150.441 86.6361 151.551 87.1765 151.731C93.5185 153.838 99.9019 155.822 106.291 157.784C106.885 157.966 107.781 158.034 108.22 157.716C115.023 152.802 120.773 159.517 127.129 159.479C127.415 159.478 127.71 161.168 128 162.07Z" fill="#CED9E1"/>
<path d="M86.018 148.962C84.4547 148.642 82.8931 148.056 81.3279 148.046C69.1959 147.971 57.0632 148.007 43.9943 148.011C34.7004 148.028 26.3427 148.044 17.9851 148.059C13.0566 147.94 15.6716 144.077 14.9372 140.997C14.9353 136.75 14.9163 133.389 14.9282 129.563C14.9523 124.736 14.9455 120.374 14.957 115.543C14.9715 109.054 14.9677 103.034 14.9754 96.5441C14.9843 83.0524 14.9819 70.03 14.9869 56.5383C14.99 45.7152 14.9857 35.3616 14.987 24.5811C15.5587 21.775 16.1246 19.3957 16.6906 17.0164C16.7565 49.3362 16.8275 81.6561 16.8854 113.976C16.9041 124.442 16.8883 134.909 16.8883 145.948C60.821 145.948 104.416 145.948 148.477 145.962C148.941 145.975 149.357 146.1 149.538 146.496C148.055 147.262 146.394 147.937 144.726 147.955C134.483 148.065 124.238 148.027 113.526 148.026C104.045 148.329 95.0313 148.645 86.018 148.962Z" fill="#F9FBFD"/>
<path d="M78.7775 128.931C74.6476 128.931 70.5178 128.931 66.1619 128.931C65.846 123.46 65.5295 117.978 65.2025 112.316C86.9699 112.316 109.861 112.316 133.077 112.316C133.077 118.101 133.077 123.839 133.077 129.721C131.622 129.54 130.2 129.362 128.784 128.979C129.537 127.068 130.802 125.403 130.937 123.65C131.445 117.043 131.303 117.148 124.787 116.913C122.546 116.832 120.248 116.244 118.118 115.488C109.272 112.344 100.364 114.667 91.315 114.72C92.2645 116.263 93.3073 117.348 94.5668 117.743C99.5724 119.314 104.668 120.598 109.677 122.156C110.825 122.513 111.765 123.54 112.8 124.259C111.863 125.168 110.926 126.077 109.612 126.821C103.267 125.959 97.2979 125.26 90.8687 124.507C91.5782 122.859 92.0571 121.746 93.1853 119.125C85.2735 118.677 78.041 118.267 70.3707 117.833C70.1078 117.37 69.44 116.195 68.641 114.788C63.8611 123.091 66.7501 128.809 75.2931 128.918C76.4544 128.933 77.616 128.927 78.7775 128.931Z" fill="#D4DEE4"/>
<path d="M18.03 148.409C26.3427 148.043 34.7003 148.028 43.5257 148.032C45.0254 149.217 45.834 150.89 47.1278 151.458C52.8751 153.979 58.5891 156.191 65.2134 156.171C73.7868 156.145 82.3752 157.242 90.9254 158.154C92.0413 158.273 92.9687 160.158 93.9923 161.632C80.3056 162.116 66.6101 162.194 52.4554 162.168C51.6263 156.41 46.6566 157.795 43.634 157.196C37.3391 155.948 30.7377 156.169 24.5009 154.743C22.0319 154.178 20.198 150.836 18.03 148.409Z" fill="#C7D4DD"/>
<path d="M14.9794 57.0076C14.9819 70.03 14.9843 83.0523 14.6364 96.4827C10.7687 92.399 7.42646 88.0178 6.49997 81.9319C6.15804 79.6859 2.42696 77.9559 0.241672 75.9906C0.164264 69.2988 0.0868561 62.607 0.481815 55.4624C4.69628 56.6927 7.18769 55.8459 7.51545 51.7163C10.164 53.5939 12.5717 55.3008 14.9794 57.0076Z" fill="#E5EBEE"/>
<path d="M165.122 99.5406C163.705 99.048 161.519 98.3233 161.189 97.0987C159.801 91.9459 156.604 90.28 151.641 90.9335C151.058 91.0102 150.406 90.5579 149.426 90.1862C149.012 87.9623 148.958 85.903 149.249 83.1572C149.42 80.654 149.248 78.8374 149.076 77.0207C149.023 76.2558 148.969 75.4909 149.276 74.0448C149.762 68.5738 149.889 63.784 150.016 58.9943C155.873 60.006 158.968 63.6988 160.044 69.3418C160.499 71.7244 161.339 73.4937 164.605 72.0327C165.039 81.0219 165.123 90.0502 165.122 99.5406Z" fill="#F5F9FC"/>
<path d="M14.9869 56.5383C12.5717 55.3008 10.164 53.594 7.51544 51.7164C7.18768 55.8459 4.69627 56.6928 0.578822 55.0026C0.13267 45.3027 0.0618542 35.6098 0.446925 25.4625C2.34306 25.7097 3.88804 26.2552 5.20538 27.1397C10.8103 30.9031 10.771 30.932 13.6386 25.497C13.8033 25.1848 14.521 25.1642 14.9813 25.0079C14.9857 35.3616 14.99 45.7153 14.9869 56.5383Z" fill="#E9F0F3"/>
<path d="M14.987 24.5811C14.521 25.1642 13.8033 25.1847 13.6386 25.4969C10.771 30.9319 10.8104 30.9031 5.20539 27.1396C3.88805 26.2551 2.34307 25.7096 0.545765 25.0029C0.138813 22.5121 0.0254853 20.0259 0.0499763 17.541C0.15459 6.93047 4.62581 1.93774 15.6703 0.72229C16.062 0.977935 16.3189 1.1198 16.3189 1.1198L16.6017 1.04163C16.6951 6.06026 16.7884 11.0789 16.7862 16.5569C16.1246 19.3956 15.5587 21.7749 14.987 24.5811Z" fill="#EEF3F5"/>
<path d="M113.994 148.039C124.238 148.027 134.483 148.065 144.726 147.955C146.394 147.937 148.055 147.262 149.755 146.506C151.066 145.868 153.392 145.227 153.464 145.42C155.111 149.869 158.452 152.124 162.907 153.551C160.999 155.628 159.021 157.341 156.329 159.063C154.745 159.686 153.874 160.299 153.003 160.913C151.583 161.317 150.163 161.721 148.33 161.69C145.593 159.937 143.379 158.335 140.914 157.386C138.596 156.495 135.99 156.384 133.552 155.766C130.225 154.923 126.832 154.188 123.659 152.923C120.319 151.591 117.206 149.691 113.994 148.039Z" fill="#DBE3E6"/>
<path d="M109.988 126.985C110.926 126.077 111.863 125.168 112.8 124.259C111.765 123.54 110.825 122.513 109.677 122.156C104.668 120.598 99.5724 119.314 94.5668 117.743C93.3073 117.348 92.2645 116.263 91.315 114.721C100.364 114.667 109.272 112.344 118.118 115.488C120.248 116.244 122.546 116.832 124.787 116.913C131.303 117.148 131.445 117.043 130.937 123.65C130.802 125.403 129.537 127.068 128.428 128.874C126.949 129.026 125.833 129.079 123.848 129.003C118.337 128.788 113.696 128.701 109.185 128.418C109.541 127.809 109.764 127.397 109.988 126.985Z" fill="#E5EBEE"/>
<path d="M113.526 148.026C117.206 149.691 120.319 151.591 123.659 152.923C126.832 154.188 130.225 154.923 133.552 155.766C135.99 156.384 138.596 156.495 140.914 157.386C143.379 158.335 145.593 159.937 147.96 161.609C141.64 162.075 135.276 162.187 128.456 162.185C127.71 161.168 127.415 159.478 127.129 159.479C120.773 159.517 115.023 152.802 108.22 157.716C107.781 158.034 106.885 157.966 106.291 157.784C99.9019 155.822 93.5185 153.838 87.1765 151.731C86.6361 151.551 86.405 150.441 86.0242 149.362C95.0313 148.645 104.045 148.329 113.526 148.026Z" fill="#D4DEE4"/>
<path d="M0.153409 76.4525C2.42695 77.956 6.15803 79.686 6.49997 81.9319C7.42645 88.0178 10.7687 92.3991 14.625 96.9521C14.9677 103.034 14.9715 109.054 14.5929 115.458C13.4856 114.314 12.7608 112.786 12.0033 111.19C7.29991 111.031 4.25201 109.192 3.80693 103.938C3.71583 102.863 1.48106 101.969 0.234433 100.991C0.178006 92.9658 0.121579 84.9401 0.153409 76.4525Z" fill="#DBE5E9"/>
<path d="M109.612 126.821C109.764 127.397 109.541 127.809 108.721 128.518C101.814 128.857 95.5016 128.898 89.1892 128.94C88.3469 128.999 87.5046 129.058 85.9703 129.02C84.9094 128.929 84.5404 128.938 84.1714 128.946C82.6692 129.003 81.1669 129.061 79.2211 129.025C77.616 128.927 76.4544 128.933 75.2931 128.918C66.7501 128.809 63.8611 123.091 68.641 114.788C69.44 116.195 70.1078 117.37 70.3707 117.833C78.041 118.267 85.2735 118.677 93.1853 119.125C92.0571 121.746 91.5782 122.859 90.8687 124.507C97.2979 125.26 103.267 125.959 109.612 126.821Z" fill="#DBE5E9"/>
<path d="M0.147931 101.453C1.48106 101.969 3.71583 102.863 3.80693 103.938C4.25201 109.192 7.29991 111.031 12.0033 111.19C12.7608 112.786 13.4856 114.314 14.5746 115.927C14.9455 120.374 14.9523 124.736 14.5903 129.514C12.5563 128.858 10.8943 127.782 9.22537 126.717C6.22888 124.804 3.22825 122.898 0.229367 120.989C0.173383 114.631 0.117398 108.273 0.147931 101.453Z" fill="#D4DEE4"/>
<path d="M165.126 133.549C163.494 133.239 161.546 132.833 160.496 131.638C158.338 129.182 157.187 125.581 154.675 123.749C149.271 119.809 149.943 114.488 149.995 109.11C150.018 106.652 149.999 104.194 149.999 100.911C151.575 101.818 152.859 102.11 153.285 102.878C155.508 106.883 159.876 109.573 159.596 115.244C159.489 117.403 162.636 119.722 164.673 121.983C165.102 125.697 165.16 129.396 165.126 133.549Z" fill="#E9F0F3"/>
<path d="M117.386 73.957C119.012 73.7721 120.647 73.6477 122.261 73.3903C126.235 72.7566 129.576 72.9086 130.129 78.1422C130.235 79.1397 131.606 80.0034 132.779 80.9691C133.256 81.7644 133.349 82.5195 132.9 83.7071C131.571 87.7947 130.783 91.4497 129.996 95.1047C128.596 95.2104 127.196 95.3161 125.39 94.8969C124.663 89.5266 122.684 86.1781 117.282 85.4301C117.29 81.3049 117.338 77.631 117.386 73.957Z" fill="#EEF3F5"/>
<path d="M0.140707 121.44C3.22826 122.898 6.22889 124.804 9.22538 126.717C10.8943 127.782 12.5563 128.858 14.5593 129.979C14.9163 133.389 14.9353 136.75 14.9069 140.569C10.2009 138.046 5.54238 135.065 0.548102 132.038C0.158926 128.624 0.10549 125.258 0.140707 121.44Z" fill="#C7D4DD"/>
<path d="M32.8777 118.336C35.2401 118.253 37.5363 118.295 39.7202 118.813C46.3315 120.379 46.9763 121.296 47.0062 128.486C42.967 128.953 38.9242 128.996 34.3203 128.763C33.576 128.266 33.3482 128.11 33.0757 128.018C32.9821 126.254 32.8885 124.489 32.8652 122C32.9601 120.88 32.9847 120.483 33.0092 120.087C32.9262 119.617 32.8432 119.148 32.8777 118.336Z" fill="#D4DEE4"/>
<path d="M117.338 73.4967C117.338 77.631 117.29 81.305 117.214 85.8743C117.186 88.6669 117.186 90.5641 117.186 91.3556C119.378 93.1015 120.733 94.18 122.087 95.2586C120.332 95.3857 118.578 95.5128 116.608 95.6555C116.608 83.5717 116.608 72.0228 116.765 60.1638C117.045 64.248 117.167 68.6422 117.338 73.4967Z" fill="#C7D4DD"/>
<path d="M150.009 58.528C149.889 63.784 149.762 68.5738 149.359 73.6685C148.955 57.8826 148.828 41.7918 148.877 25.7788C149.358 31.5732 149.661 37.2899 149.964 43.0065C149.977 48.0249 149.99 53.0434 150.009 58.528Z" fill="#E0E6E9"/>
<path d="M122.444 95.3687C120.733 94.18 119.378 93.1014 117.186 91.3555C117.186 90.564 117.186 88.6668 117.254 86.3255C122.684 86.1781 124.663 89.5266 124.983 94.7738C124.255 95.2767 123.528 95.3778 122.444 95.3687Z" fill="#E0E6E9"/>
<path d="M32.7855 105.4C36.6736 107.051 40.4341 109.104 44.1946 111.157C43.886 111.76 43.5774 112.363 43.2688 112.967C40.0866 111.975 36.9043 110.982 33.3235 109.982C32.8358 108.583 32.7468 107.193 32.7855 105.4Z" fill="#DBE5E9"/>
<path d="M89.5636 129.037C95.5016 128.898 101.814 128.857 108.59 128.715C113.696 128.701 118.337 128.788 123.436 128.917C112.575 129.018 101.256 129.076 89.5636 129.037Z" fill="#D4DEE4"/>
<path d="M33.2646 5.463C33.1901 8.43086 33.087 11.0154 32.8938 14.0901C32.6316 9.79546 32.4596 5.01076 32.6939 0.341919C33.1455 1.99843 33.1908 3.53906 33.2646 5.463Z" fill="#C7D4DD"/>
<path d="M32.6518 42.8223C32.9186 43.9268 32.7054 45.4732 33.1928 46.7527C33.7854 48.3087 34.9682 49.64 35.9662 51.3605C33.3729 52.3705 31.7419 51.931 32.2336 48.5924C32.497 46.8034 32.4107 44.963 32.6518 42.8223Z" fill="#C7D4DD"/>
<path d="M130.228 95.2308C130.783 91.4496 131.571 87.7946 132.756 84.0662C133.238 87.3788 133.321 90.7648 132.877 94.6234C132.064 95.1655 131.78 95.2351 131.495 95.3047C131.15 95.3221 130.804 95.3395 130.228 95.2308Z" fill="#F9FBFD"/>
<path d="M149.976 42.5375C149.661 37.2898 149.358 31.5732 149.001 25.3872C148.881 24.2008 148.815 23.4836 148.918 22.1243C149.384 20.9854 149.68 20.4887 149.977 19.9919C149.981 27.3508 149.985 34.7097 149.976 42.5375Z" fill="#E9F0F3"/>
<path d="M165.095 111.56C162.72 109.547 162.1 106.949 164.674 104.051C165.085 106.374 165.133 108.748 165.095 111.56Z" fill="#F9FBFD"/>
<path d="M113.343 51.8803C116.037 50.0896 117.429 50.9381 117.051 54.7402C115.832 54.0995 114.731 53.0741 113.343 51.8803Z" fill="#C7D4DD"/>
<path d="M148.965 77.3365C149.248 78.8374 149.42 80.654 149.334 82.723C149.002 81.2009 148.927 79.4267 148.965 77.3365Z" fill="#E0E6E9"/>
<path d="M149.981 19.6737C149.68 20.4888 149.384 20.9855 149.025 21.7774C148.893 20.5833 148.824 19.0941 148.696 17.2285C149.086 17.6866 149.536 18.521 149.981 19.6737Z" fill="#E0E6E9"/>
<path d="M105.273 51.8228C105.524 51.4268 105.99 51.167 106.734 50.8518C107.295 50.9076 107.552 51.0615 107.864 51.468C107.126 51.7717 106.308 51.8653 105.273 51.8228Z" fill="#C7D4DD"/>
<path d="M153.333 160.921C153.874 160.299 154.745 159.686 155.992 159.097C155.466 159.724 154.565 160.327 153.333 160.921Z" fill="#E0E6E9"/>
<path d="M133.4 71.121C133.131 69.8106 133.031 68.1587 133.079 66.0264C133.341 67.2905 133.455 69.035 133.4 71.121Z" fill="#C7D4DD"/>
<path d="M165.1 115.669C164.488 115.768 163.959 115.538 163.43 115.307C163.754 114.891 164.077 114.475 164.706 114.031C165.069 114.448 165.126 114.894 165.1 115.669Z" fill="#F9FBFD"/>
<path d="M49.2099 16.7044C49.5569 16.4254 50.2637 16.2618 51.0086 16.3624C50.5544 16.691 50.0621 16.7554 49.2099 16.7044Z" fill="#E0E6E9"/>
<path d="M64.8764 66.2458C65.1808 66.9572 65.1846 67.5927 65.1469 68.5445C64.9289 67.9639 64.7523 67.0669 64.8764 66.2458Z" fill="#8C959B"/>
<path d="M133.437 34.8889C132.963 34.911 132.645 34.7478 132.156 34.3705C132.521 34.3388 133.057 34.5211 133.437 34.8889Z" fill="#C7D4DD"/>
<path d="M32.8963 120.244C32.9847 120.483 32.9601 120.88 32.9793 121.571C32.9432 121.377 32.8633 120.889 32.8963 120.244Z" fill="#E0E6E9"/>
<path d="M84.3196 129.045C84.5404 128.938 84.9094 128.929 85.5548 128.934C85.3767 129.012 84.9222 129.079 84.3196 129.045Z" fill="#D4DEE4"/>
<path d="M164.291 149.032C164.118 148.805 164.26 148.526 164.661 148.154C164.757 148.338 164.652 148.645 164.291 149.032Z" fill="#F9FBFD"/>
<path d="M16.6289 0.835709C16.6017 1.04159 16.3189 1.11977 16.3189 1.11977C16.3189 1.11977 16.062 0.977905 16.0332 0.834015C16.0043 0.690109 16.3067 0.405762 16.3067 0.405762C16.3067 0.405762 16.6562 0.629822 16.6289 0.835709Z" fill="#BDCAD4"/>
<path d="M152.799 0.913471C152.889 1.04874 152.618 1.19829 152.618 1.19829C152.618 1.19829 152.315 1.13443 152.226 1.00762C152.294 0.658802 152.485 0.624607 152.799 0.913471Z" fill="#C7D4DD"/>
<path d="M54.2484 16.7351C54.2767 16.5333 54.5538 16.4274 54.9125 16.4803C54.8285 16.7031 54.6627 16.7671 54.2484 16.7351Z" fill="#E0E6E9"/>
<path d="M100.63 66.9023C100.177 67.1998 99.9555 67.0572 99.8633 66.5061C100.158 66.4124 100.448 66.5339 100.63 66.9023Z" fill="#8C959B"/>
<path d="M102.692 52.0275C102.645 51.8656 102.627 51.9345 102.637 51.9054C102.558 51.9435 102.469 52.0108 102.38 52.0781C102.5 52.1152 102.62 52.1523 102.692 52.0275Z" fill="#C7D4DD"/>
<path d="M33.0356 128.298C33.3482 128.11 33.576 128.266 33.8628 128.67C33.6427 128.76 33.319 128.668 33.0356 128.298Z" fill="#E0E6E9"/>
<path d="M100.154 96.0844C100.128 95.8873 100.294 95.7105 100.408 95.7526C100.408 95.957 100.294 96.1193 100.154 96.0844Z" fill="#8C959B"/>
<path d="M109.67 52.0233C109.613 51.8654 109.599 51.9349 109.609 51.9047C109.618 51.8746 109.419 52.2439 109.419 52.2439C109.419 52.2439 109.727 52.1812 109.67 52.0233Z" fill="#C7D4DD"/>
<path d="M96.9579 95.5462C97.0546 95.2652 97.365 95.1401 97.8877 95.1777C97.7906 95.461 97.4811 95.5816 96.9579 95.5462Z" fill="#8C959B"/>
<path d="M131.678 95.5403C131.78 95.2351 132.064 95.1656 132.788 95.0787C133.25 95.2838 133.273 95.5062 133.097 95.9634C132.898 96.1982 132.94 96.2744 132.94 96.2744C132.581 96.1082 132.221 95.942 131.678 95.5403Z" fill="#C7D4DD"/>
<path d="M132.855 96.1952C132.812 96.1922 133.079 96.1767 133.079 96.1767C133.079 96.1767 132.872 96.0627 132.906 96.1686C132.94 96.2745 132.899 96.1983 132.855 96.1952Z" fill="#C7D4DD"/>
</svg>
